<svg viewBox="0, 0, 25, 25" xmlns="http://www.w3.org/2000/svg">
	<path fill="#85F886" d="M1 0H0V1H1V0Z"/>
	<path fill="#85F886" d="M1 1H0V2H1V1Z"/>
	<path fill="#85F886" d="M1 2H0V3H1V2Z"/>
	<path fill="#85F886" d="M1 3H0V4H1V3Z"/>
	<path fill="#85F886" d="M1 4H0V5H1V4Z"/>
	<path fill="#85F886" d="M1 5H0V6H1V5Z"/>
	<path fill="#85F886" d="M1 6H0V7H1V6Z"/>
	<path fill="#85F886" d="M1 8H0V9H1V8Z"/>
	<path fill="#85F886" d="M1 9H0V10H1V9Z"/>
	<path fill="#85F886" d="M1 12H0V13H1V12Z"/>
	<path fill="#85F886" d="M1 14H0V15H1V14Z"/>
	<path fill="#85F886" d="M1 16H0V17H1V16Z"/>
	<path fill="#85F886" d="M1 18H0V19H1V18Z"/>
	<path fill="#85F886" d="M1 19H0V20H1V19Z"/>
	<path fill="#85F886" d="M1 20H0V21H1V20Z"/>
	<path fill="#85F886" d="M1 21H0V22H1V21Z"/>
	<path fill="#85F886" d="M1 22H0V23H1V22Z"/>
	<path fill="#85F886" d="M1 23H0V24H1V23Z"/>
	<path fill="#85F886" d="M1 24H0V25H1V24Z"/>
	<path fill="#85F886" d="M2 0H1V1H2V0Z"/>
	<path fill="#85F886" d="M2 6H1V7H2V6Z"/>
	<path fill="#85F886" d="M2 8H1V9H2V8Z"/>
	<path fill="#85F886" d="M2 10H1V11H2V10Z"/>
	<path fill="#85F886" d="M2 11H1V12H2V11Z"/>
	<path fill="#85F886" d="M2 12H1V13H2V12Z"/>
	<path fill="#85F886" d="M2 13H1V14H2V13Z"/>
	<path fill="#85F886" d="M2 14H1V15H2V14Z"/>
	<path fill="#85F886" d="M2 16H1V17H2V16Z"/>
	<path fill="#85F886" d="M2 18H1V19H2V18Z"/>
	<path fill="#85F886" d="M2 24H1V25H2V24Z"/>
	<path fill="#85F886" d="M3 0H2V1H3V0Z"/>
	<path fill="#85F886" d="M3 2H2V3H3V2Z"/>
	<path fill="#85F886" d="M3 3H2V4H3V3Z"/>
	<path fill="#85F886" d="M3 4H2V5H3V4Z"/>
	<path fill="#85F886" d="M3 6H2V7H3V6Z"/>
	<path fill="#85F886" d="M3 8H2V9H3V8Z"/>
	<path fill="#85F886" d="M3 9H2V10H3V9Z"/>
	<path fill="#85F886" d="M3 11H2V12H3V11Z"/>
	<path fill="#85F886" d="M3 13H2V14H3V13Z"/>
	<path fill="#85F886" d="M3 14H2V15H3V14Z"/>
	<path fill="#85F886" d="M3 16H2V17H3V16Z"/>
	<path fill="#85F886" d="M3 18H2V19H3V18Z"/>
	<path fill="#85F886" d="M3 20H2V21H3V20Z"/>
	<path fill="#85F886" d="M3 21H2V22H3V21Z"/>
	<path fill="#85F886" d="M3 22H2V23H3V22Z"/>
	<path fill="#85F886" d="M3 24H2V25H3V24Z"/>
	<path fill="#85F886" d="M4 0H3V1H4V0Z"/>
	<path fill="#85F886" d="M4 2H3V3H4V2Z"/>
	<path fill="#85F886" d="M4 3H3V4H4V3Z"/>
	<path fill="#85F886" d="M4 4H3V5H4V4Z"/>
	<path fill="#85F886" d="M4 6H3V7H4V6Z"/>
	<path fill="#85F886" d="M4 10H3V11H4V10Z"/>
	<path fill="#85F886" d="M4 11H3V12H4V11Z"/>
	<path fill="#85F886" d="M4 13H3V14H4V13Z"/>
	<path fill="#85F886" d="M4 14H3V15H4V14Z"/>
	<path fill="#85F886" d="M4 18H3V19H4V18Z"/>
	<path fill="#85F886" d="M4 20H3V21H4V20Z"/>
	<path fill="#85F886" d="M4 21H3V22H4V21Z"/>
	<path fill="#85F886" d="M4 22H3V23H4V22Z"/>
	<path fill="#85F886" d="M4 24H3V25H4V24Z"/>
	<path fill="#85F886" d="M5 0H4V1H5V0Z"/>
	<path fill="#85F886" d="M5 2H4V3H5V2Z"/>
	<path fill="#85F886" d="M5 3H4V4H5V3Z"/>
	<path fill="#85F886" d="M5 4H4V5H5V4Z"/>
	<path fill="#85F886" d="M5 6H4V7H5V6Z"/>
	<path fill="#85F886" d="M5 9H4V10H5V9Z"/>
	<path fill="#85F886" d="M5 11H4V12H5V11Z"/>
	<path fill="#85F886" d="M5 12H4V13H5V12Z"/>
	<path fill="#85F886" d="M5 16H4V17H5V16Z"/>
	<path fill="#85F886" d="M5 18H4V19H5V18Z"/>
	<path fill="#85F886" d="M5 20H4V21H5V20Z"/>
	<path fill="#85F886" d="M5 21H4V22H5V21Z"/>
	<path fill="#85F886" d="M5 22H4V23H5V22Z"/>
	<path fill="#85F886" d="M5 24H4V25H5V24Z"/>
	<path fill="#85F886" d="M6 0H5V1H6V0Z"/>
	<path fill="#85F886" d="M6 6H5V7H6V6Z"/>
	<path fill="#85F886" d="M6 8H5V9H6V8Z"/>
	<path fill="#85F886" d="M6 9H5V10H6V9Z"/>
	<path fill="#85F886" d="M6 10H5V11H6V10Z"/>
	<path fill="#85F886" d="M6 11H5V12H6V11Z"/>
	<path fill="#85F886" d="M6 13H5V14H6V13Z"/>
	<path fill="#85F886" d="M6 16H5V17H6V16Z"/>
	<path fill="#85F886" d="M6 18H5V19H6V18Z"/>
	<path fill="#85F886" d="M6 24H5V25H6V24Z"/>
	<path fill="#85F886" d="M7 0H6V1H7V0Z"/>
	<path fill="#85F886" d="M7 1H6V2H7V1Z"/>
	<path fill="#85F886" d="M7 2H6V3H7V2Z"/>
	<path fill="#85F886" d="M7 3H6V4H7V3Z"/>
	<path fill="#85F886" d="M7 4H6V5H7V4Z"/>
	<path fill="#85F886" d="M7 5H6V6H7V5Z"/>
	<path fill="#85F886" d="M7 6H6V7H7V6Z"/>
	<path fill="#85F886" d="M7 8H6V9H7V8Z"/>
	<path fill="#85F886" d="M7 10H6V11H7V10Z"/>
	<path fill="#85F886" d="M7 12H6V13H7V12Z"/>
	<path fill="#85F886" d="M7 14H6V15H7V14Z"/>
	<path fill="#85F886" d="M7 16H6V17H7V16Z"/>
	<path fill="#85F886" d="M7 18H6V19H7V18Z"/>
	<path fill="#85F886" d="M7 19H6V20H7V19Z"/>
	<path fill="#85F886" d="M7 20H6V21H7V20Z"/>
	<path fill="#85F886" d="M7 21H6V22H7V21Z"/>
	<path fill="#85F886" d="M7 22H6V23H7V22Z"/>
	<path fill="#85F886" d="M7 23H6V24H7V23Z"/>
	<path fill="#85F886" d="M7 24H6V25H7V24Z"/>
	<path fill="#85F886" d="M8 9H7V10H8V9Z"/>
	<path fill="#85F886" d="M8 10H7V11H8V10Z"/>
	<path fill="#85F886" d="M8 11H7V12H8V11Z"/>
	<path fill="#85F886" d="M8 13H7V14H8V13Z"/>
	<path fill="#85F886" d="M8 14H7V15H8V14Z"/>
	<path fill="#85F886" d="M8 15H7V16H8V15Z"/>
	<path fill="#85F886" d="M9 0H8V1H9V0Z"/>
	<path fill="#85F886" d="M9 1H8V2H9V1Z"/>
	<path fill="#85F886" d="M9 4H8V5H9V4Z"/>
	<path fill="#85F886" d="M9 5H8V6H9V5Z"/>
	<path fill="#85F886" d="M9 6H8V7H9V6Z"/>
	<path fill="#85F886" d="M9 7H8V8H9V7Z"/>
	<path fill="#85F886" d="M9 8H8V9H9V8Z"/>
	<path fill="#85F886" d="M9 10H8V11H9V10Z"/>
	<path fill="#85F886" d="M9 17H8V18H9V17Z"/>
	<path fill="#85F886" d="M9 19H8V20H9V19Z"/>
	<path fill="#85F886" d="M9 22H8V23H9V22Z"/>
	<path fill="#85F886" d="M9 23H8V24H9V23Z"/>
	<path fill="#85F886" d="M9 24H8V25H9V24Z"/>
	<path fill="#85F886" d="M10 1H9V2H10V1Z"/>
	<path fill="#85F886" d="M10 4H9V5H10V4Z"/>
	<path fill="#85F886" d="M10 8H9V9H10V8Z"/>
	<path fill="#85F886" d="M10 9H9V10H10V9Z"/>
	<path fill="#85F886" d="M10 11H9V12H10V11Z"/>
	<path fill="#85F886" d="M10 12H9V13H10V12Z"/>
	<path fill="#85F886" d="M10 13H9V14H10V13Z"/>
	<path fill="#85F886" d="M10 17H9V18H10V17Z"/>
	<path fill="#85F886" d="M10 19H9V20H10V19Z"/>
	<path fill="#85F886" d="M10 20H9V21H10V20Z"/>
	<path fill="#85F886" d="M10 23H9V24H10V23Z"/>
	<path fill="#85F886" d="M10 24H9V25H10V24Z"/>
	<path fill="#85F886" d="M11 0H10V1H11V0Z"/>
	<path fill="#85F886" d="M11 1H10V2H11V1Z"/>
	<path fill="#85F886" d="M11 2H10V3H11V2Z"/>
	<path fill="#85F886" d="M11 3H10V4H11V3Z"/>
	<path fill="#85F886" d="M11 4H10V5H11V4Z"/>
	<path fill="#85F886" d="M11 6H10V7H11V6Z"/>
	<path fill="#85F886" d="M11 7H10V8H11V7Z"/>
	<path fill="#85F886" d="M11 8H10V9H11V8Z"/>
	<path fill="#85F886" d="M11 9H10V10H11V9Z"/>
	<path fill="#85F886" d="M11 14H10V15H11V14Z"/>
	<path fill="#85F886" d="M11 15H10V16H11V15Z"/>
	<path fill="#85F886" d="M11 16H10V17H11V16Z"/>
	<path fill="#85F886" d="M11 21H10V22H11V21Z"/>
	<path fill="#85F886" d="M11 23H10V24H11V23Z"/>
	<path fill="#85F886" d="M12 0H11V1H12V0Z"/>
	<path fill="#85F886" d="M12 2H11V3H12V2Z"/>
	<path fill="#85F886" d="M12 8H11V9H12V8Z"/>
	<path fill="#85F886" d="M12 9H11V10H12V9Z"/>
	<path fill="#85F886" d="M12 10H11V11H12V10Z"/>
	<path fill="#85F886" d="M12 12H11V13H12V12Z"/>
	<path fill="#85F886" d="M12 13H11V14H12V13Z"/>
	<path fill="#85F886" d="M12 14H11V15H12V14Z"/>
	<path fill="#85F886" d="M12 15H11V16H12V15Z"/>
	<path fill="#85F886" d="M12 17H11V18H12V17Z"/>
	<path fill="#85F886" d="M12 18H11V19H12V18Z"/>
	<path fill="#85F886" d="M12 21H11V22H12V21Z"/>
	<path fill="#85F886" d="M12 22H11V23H12V22Z"/>
	<path fill="#85F886" d="M12 23H11V24H12V23Z"/>
	<path fill="#85F886" d="M12 24H11V25H12V24Z"/>
	<path fill="#85F886" d="M13 0H12V1H13V0Z"/>
	<path fill="#85F886" d="M13 2H12V3H13V2Z"/>
	<path fill="#85F886" d="M13 3H12V4H13V3Z"/>
	<path fill="#85F886" d="M13 6H12V7H13V6Z"/>
	<path fill="#85F886" d="M13 9H12V10H13V9Z"/>
	<path fill="#85F886" d="M13 12H12V13H13V12Z"/>
	<path fill="#85F886" d="M13 13H12V14H13V13Z"/>
	<path fill="#85F886" d="M13 14H12V15H13V14Z"/>
	<path fill="#85F886" d="M13 15H12V16H13V15Z"/>
	<path fill="#85F886" d="M13 16H12V17H13V16Z"/>
	<path fill="#85F886" d="M13 21H12V22H13V21Z"/>
	<path fill="#85F886" d="M13 22H12V23H13V22Z"/>
	<path fill="#85F886" d="M13 23H12V24H13V23Z"/>
	<path fill="#85F886" d="M13 24H12V25H13V24Z"/>
	<path fill="#85F886" d="M14 1H13V2H14V1Z"/>
	<path fill="#85F886" d="M14 2H13V3H14V2Z"/>
	<path fill="#85F886" d="M14 3H13V4H14V3Z"/>
	<path fill="#85F886" d="M14 5H13V6H14V5Z"/>
	<path fill="#85F886" d="M14 10H13V11H14V10Z"/>
	<path fill="#85F886" d="M14 14H13V15H14V14Z"/>
	<path fill="#85F886" d="M14 17H13V18H14V17Z"/>
	<path fill="#85F886" d="M14 18H13V19H14V18Z"/>
	<path fill="#85F886" d="M14 21H13V22H14V21Z"/>
	<path fill="#85F886" d="M14 22H13V23H14V22Z"/>
	<path fill="#85F886" d="M15 0H14V1H15V0Z"/>
	<path fill="#85F886" d="M15 1H14V2H15V1Z"/>
	<path fill="#85F886" d="M15 2H14V3H15V2Z"/>
	<path fill="#85F886" d="M15 3H14V4H15V3Z"/>
	<path fill="#85F886" d="M15 4H14V5H15V4Z"/>
	<path fill="#85F886" d="M15 5H14V6H15V5Z"/>
	<path fill="#85F886" d="M15 6H14V7H15V6Z"/>
	<path fill="#85F886" d="M15 11H14V12H15V11Z"/>
	<path fill="#85F886" d="M15 13H14V14H15V13Z"/>
	<path fill="#85F886" d="M15 22H14V23H15V22Z"/>
	<path fill="#85F886" d="M15 23H14V24H15V23Z"/>
	<path fill="#85F886" d="M16 7H15V8H16V7Z"/>
	<path fill="#85F886" d="M16 9H15V10H16V9Z"/>
	<path fill="#85F886" d="M16 10H15V11H16V10Z"/>
	<path fill="#85F886" d="M16 11H15V12H16V11Z"/>
	<path fill="#85F886" d="M16 12H15V13H16V12Z"/>
	<path fill="#85F886" d="M16 13H15V14H16V13Z"/>
	<path fill="#85F886" d="M16 14H15V15H16V14Z"/>
	<path fill="#85F886" d="M16 15H15V16H16V15Z"/>
	<path fill="#85F886" d="M16 16H15V17H16V16Z"/>
	<path fill="#85F886" d="M16 19H15V20H16V19Z"/>
	<path fill="#85F886" d="M16 20H15V21H16V20Z"/>
	<path fill="#85F886" d="M17 0H16V1H17V0Z"/>
	<path fill="#85F886" d="M17 1H16V2H17V1Z"/>
	<path fill="#85F886" d="M17 3H16V4H17V3Z"/>
	<path fill="#85F886" d="M17 5H16V6H17V5Z"/>
	<path fill="#85F886" d="M17 6H16V7H17V6Z"/>
	<path fill="#85F886" d="M17 7H16V8H17V7Z"/>
	<path fill="#85F886" d="M17 8H16V9H17V8Z"/>
	<path fill="#85F886" d="M17 9H16V10H17V9Z"/>
	<path fill="#85F886" d="M17 10H16V11H17V10Z"/>
	<path fill="#85F886" d="M17 13H16V14H17V13Z"/>
	<path fill="#85F886" d="M17 15H16V16H17V15Z"/>
	<path fill="#85F886" d="M17 16H16V17H17V16Z"/>
	<path fill="#85F886" d="M17 17H16V18H17V17Z"/>
	<path fill="#85F886" d="M17 18H16V19H17V18Z"/>
	<path fill="#85F886" d="M17 19H16V20H17V19Z"/>
	<path fill="#85F886" d="M17 20H16V21H17V20Z"/>
	<path fill="#85F886" d="M17 21H16V22H17V21Z"/>
	<path fill="#85F886" d="M17 23H16V24H17V23Z"/>
	<path fill="#85F886" d="M17 24H16V25H17V24Z"/>
	<path fill="#85F886" d="M18 8H17V9H18V8Z"/>
	<path fill="#85F886" d="M18 9H17V10H18V9Z"/>
	<path fill="#85F886" d="M18 10H17V11H18V10Z"/>
	<path fill="#85F886" d="M18 15H17V16H18V15Z"/>
	<path fill="#85F886" d="M18 16H17V17H18V16Z"/>
	<path fill="#85F886" d="M18 20H17V21H18V20Z"/>
	<path fill="#85F886" d="M18 21H17V22H18V21Z"/>
	<path fill="#85F886" d="M18 22H17V23H18V22Z"/>
	<path fill="#85F886" d="M18 23H17V24H18V23Z"/>
	<path fill="#85F886" d="M19 0H18V1H19V0Z"/>
	<path fill="#85F886" d="M19 1H18V2H19V1Z"/>
	<path fill="#85F886" d="M19 2H18V3H19V2Z"/>
	<path fill="#85F886" d="M19 3H18V4H19V3Z"/>
	<path fill="#85F886" d="M19 4H18V5H19V4Z"/>
	<path fill="#85F886" d="M19 5H18V6H19V5Z"/>
	<path fill="#85F886" d="M19 6H18V7H19V6Z"/>
	<path fill="#85F886" d="M19 8H18V9H19V8Z"/>
	<path fill="#85F886" d="M19 9H18V10H19V9Z"/>
	<path fill="#85F886" d="M19 10H18V11H19V10Z"/>
	<path fill="#85F886" d="M19 11H18V12H19V11Z"/>
	<path fill="#85F886" d="M19 12H18V13H19V12Z"/>
	<path fill="#85F886" d="M19 13H18V14H19V13Z"/>
	<path fill="#85F886" d="M19 14H18V15H19V14Z"/>
	<path fill="#85F886" d="M19 16H18V17H19V16Z"/>
	<path fill="#85F886" d="M19 18H18V19H19V18Z"/>
	<path fill="#85F886" d="M19 20H18V21H19V20Z"/>
	<path fill="#85F886" d="M19 24H18V25H19V24Z"/>
	<path fill="#85F886" d="M20 0H19V1H20V0Z"/>
	<path fill="#85F886" d="M20 6H19V7H20V6Z"/>
	<path fill="#85F886" d="M20 8H19V9H20V8Z"/>
	<path fill="#85F886" d="M20 9H19V10H20V9Z"/>
	<path fill="#85F886" d="M20 11H19V12H20V11Z"/>
	<path fill="#85F886" d="M20 12H19V13H20V12Z"/>
	<path fill="#85F886" d="M20 13H19V14H20V13Z"/>
	<path fill="#85F886" d="M20 15H19V16H20V15Z"/>
	<path fill="#85F886" d="M20 16H19V17H20V16Z"/>
	<path fill="#85F886" d="M20 20H19V21H20V20Z"/>
	<path fill="#85F886" d="M20 22H19V23H20V22Z"/>
	<path fill="#85F886" d="M20 23H19V24H20V23Z"/>
	<path fill="#85F886" d="M21 0H20V1H21V0Z"/>
	<path fill="#85F886" d="M21 2H20V3H21V2Z"/>
	<path fill="#85F886" d="M21 3H20V4H21V3Z"/>
	<path fill="#85F886" d="M21 4H20V5H21V4Z"/>
	<path fill="#85F886" d="M21 6H20V7H21V6Z"/>
	<path fill="#85F886" d="M21 8H20V9H21V8Z"/>
	<path fill="#85F886" d="M21 15H20V16H21V15Z"/>
	<path fill="#85F886" d="M21 16H20V17H21V16Z"/>
	<path fill="#85F886" d="M21 17H20V18H21V17Z"/>
	<path fill="#85F886" d="M21 18H20V19H21V18Z"/>
	<path fill="#85F886" d="M21 19H20V20H21V19Z"/>
	<path fill="#85F886" d="M21 20H20V21H21V20Z"/>
	<path fill="#85F886" d="M21 21H20V22H21V21Z"/>
	<path fill="#85F886" d="M21 22H20V23H21V22Z"/>
	<path fill="#85F886" d="M21 23H20V24H21V23Z"/>
	<path fill="#85F886" d="M22 0H21V1H22V0Z"/>
	<path fill="#85F886" d="M22 2H21V3H22V2Z"/>
	<path fill="#85F886" d="M22 3H21V4H22V3Z"/>
	<path fill="#85F886" d="M22 4H21V5H22V4Z"/>
	<path fill="#85F886" d="M22 6H21V7H22V6Z"/>
	<path fill="#85F886" d="M22 9H21V10H22V9Z"/>
	<path fill="#85F886" d="M22 10H21V11H22V10Z"/>
	<path fill="#85F886" d="M22 11H21V12H22V11Z"/>
	<path fill="#85F886" d="M22 14H21V15H22V14Z"/>
	<path fill="#85F886" d="M22 15H21V16H22V15Z"/>
	<path fill="#85F886" d="M22 22H21V23H22V22Z"/>
	<path fill="#85F886" d="M22 24H21V25H22V24Z"/>
	<path fill="#85F886" d="M23 0H22V1H23V0Z"/>
	<path fill="#85F886" d="M23 2H22V3H23V2Z"/>
	<path fill="#85F886" d="M23 3H22V4H23V3Z"/>
	<path fill="#85F886" d="M23 4H22V5H23V4Z"/>
	<path fill="#85F886" d="M23 6H22V7H23V6Z"/>
	<path fill="#85F886" d="M23 10H22V11H23V10Z"/>
	<path fill="#85F886" d="M23 14H22V15H23V14Z"/>
	<path fill="#85F886" d="M23 21H22V22H23V21Z"/>
	<path fill="#85F886" d="M24 0H23V1H24V0Z"/>
	<path fill="#85F886" d="M24 6H23V7H24V6Z"/>
	<path fill="#85F886" d="M24 8H23V9H24V8Z"/>
	<path fill="#85F886" d="M24 9H23V10H24V9Z"/>
	<path fill="#85F886" d="M24 13H23V14H24V13Z"/>
	<path fill="#85F886" d="M24 16H23V17H24V16Z"/>
	<path fill="#85F886" d="M24 19H23V20H24V19Z"/>
	<path fill="#85F886" d="M24 21H23V22H24V21Z"/>
	<path fill="#85F886" d="M24 22H23V23H24V22Z"/>
	<path fill="#85F886" d="M25 0H24V1H25V0Z"/>
	<path fill="#85F886" d="M25 1H24V2H25V1Z"/>
	<path fill="#85F886" d="M25 2H24V3H25V2Z"/>
	<path fill="#85F886" d="M25 3H24V4H25V3Z"/>
	<path fill="#85F886" d="M25 4H24V5H25V4Z"/>
	<path fill="#85F886" d="M25 5H24V6H25V5Z"/>
	<path fill="#85F886" d="M25 6H24V7H25V6Z"/>
	<path fill="#85F886" d="M25 8H24V9H25V8Z"/>
	<path fill="#85F886" d="M25 9H24V10H25V9Z"/>
	<path fill="#85F886" d="M25 10H24V11H25V10Z"/>
	<path fill="#85F886" d="M25 12H24V13H25V12Z"/>
	<path fill="#85F886" d="M25 13H24V14H25V13Z"/>
	<path fill="#85F886" d="M25 14H24V15H25V14Z"/>
	<path fill="#85F886" d="M25 17H24V18H25V17Z"/>
	<path fill="#85F886" d="M25 18H24V19H25V18Z"/>
	<path fill="#85F886" d="M25 22H24V23H25V22Z"/>
	<path fill="#85F886" d="M25 24H24V25H25V24Z"/>
</svg>